<svg xmlns="http://www.w3.org/2000/svg" viewBox="0 0 64 64" fill="none">
  <rect width="64" height="64" rx="12" fill="#10B981"/>
  <path d="M32 16C23.16 16 16 23.16 16 32C16 40.84 23.16 48 32 48C40.84 48 48 40.84 48 32C48 23.16 40.84 16 32 16ZM32 44C25.37 44 20 38.63 20 32C20 25.37 25.37 20 32 20C38.63 20 44 25.37 44 32C44 38.63 38.63 44 32 44Z" fill="white"/>
  <path d="M33 24H31V28H27V30H31V38H33V30H37V28H33V24Z" fill="white"/>
  <path d="M32 34C30.9 34 30 34.9 30 36C30 37.1 30.9 38 32 38C33.1 38 34 37.1 34 36C34 34.9 33.1 34 32 34Z" fill="white"/>
</svg>
